<?xml version="1.0" encoding="UTF-8" standalone="no"?>
<!-- Created with Inkscape (http://www.inkscape.org/) -->

<svg
   xmlns:dc="http://purl.org/dc/elements/1.1/"
   xmlns:cc="http://creativecommons.org/ns#"
   xmlns:rdf="http://www.w3.org/1999/02/22-rdf-syntax-ns#"
   xmlns:svg="http://www.w3.org/2000/svg"
   xmlns="http://www.w3.org/2000/svg"
   xmlns:sodipodi="http://sodipodi.sourceforge.net/DTD/sodipodi-0.dtd"
   xmlns:inkscape="http://www.inkscape.org/namespaces/inkscape"
   width="222.28"
   height="222.28"
   id="svg2"
   version="1.1"
   inkscape:version="0.48.0 r9654"
   inkscape:export-filename="C:\Users\Conrado\Documents\Conrado\workspace\quiriquiri\resources\icon_256.png"
   inkscape:export-xdpi="103.65305"
   inkscape:export-ydpi="103.65305"
   sodipodi:docname="icon.svg">
  <defs
     id="defs4" />
  <sodipodi:namedview
     id="base"
     pagecolor="#ffffff"
     bordercolor="#666666"
     borderopacity="1.0"
     inkscape:pageopacity="0"
     inkscape:pageshadow="2"
     inkscape:zoom="0.35"
     inkscape:cx="-373.88456"
     inkscape:cy="93.571415"
     inkscape:document-units="px"
     inkscape:current-layer="layer1"
     showgrid="false"
     inkscape:window-width="1440"
     inkscape:window-height="830"
     inkscape:window-x="1432"
     inkscape:window-y="10"
     inkscape:window-maximized="1"
     fit-margin-top="0"
     fit-margin-left="0"
     fit-margin-right="0"
     fit-margin-bottom="0" />
  <metadata
     id="metadata7">
    <rdf:RDF>
      <cc:Work
         rdf:about="">
        <dc:format>image/svg+xml</dc:format>
        <dc:type
           rdf:resource="http://purl.org/dc/dcmitype/StillImage" />
        <dc:title></dc:title>
      </cc:Work>
    </rdf:RDF>
  </metadata>
  <g
     inkscape:label="Layer 1"
     inkscape:groupmode="layer"
     id="layer1"
     transform="translate(-186.17028,-672.58217)">
    <g
       id="g3830"
       transform="translate(5.7119536,456.06355)">
      <path
         style="fill:#a39b93"
         d="m 250.486,426.89789 c -0.78302,-1.2375 -1.46433,-4.09472 -1.51403,-6.34937 -0.057,-2.58455 -1.49048,-6.9323 -3.87929,-11.76573 -3.99415,-8.08162 -4.11516,-10.78796 -0.56725,-12.68674 1.90918,-1.02176 1.8874,-1.1815 -0.81773,-5.99792 -2.44049,-4.34524 -3.17517,-4.94833 -6.02914,-4.94922 -1.7875,-5.6e-4 -3.25,-0.49993 -3.25,-1.10972 0,-1.54427 -10.49605,-11.8913 -12.06256,-11.8913 -0.70398,0 -2.08463,-0.72822 -3.06812,-1.61826 -2.78352,-2.51906 -10.125,-2.85052 -19.5106,-0.8809 -6.03619,1.26673 -8.78765,1.47024 -9.55144,0.70644 -1.57542,-1.57542 -0.27507,-3.99536 2.38157,-4.43206 2.20129,-0.36184 2.15602,-0.47248 -0.95237,-2.32756 -4.12148,-2.45969 -3.91983,-5.06945 0.35854,-4.64014 1.87059,0.1877 3.56825,-0.29932 4.35725,-1.25 1.85082,-2.23011 3.04078,-1.95659 6.63235,1.5245 2.76066,2.67573 3.44102,2.91891 5.1611,1.84471 1.64233,-1.02565 2.73163,-0.88627 6.36776,0.81481 2.41259,1.12866 6.67423,2.32912 9.47032,2.66768 4.28721,0.51912 5.36649,0.30319 6.88801,-1.37807 1.45104,-1.60338 1.5646,-2.28235 0.58011,-3.46859 -1.52623,-1.83899 -0.5552,-3.56256 2.0071,-3.56256 3.20173,0 2.17655,-2.38185 -1.81919,-4.22661 -8.10503,-3.74195 -15.43574,-8.48407 -19.00084,-12.29133 -2.05645,-2.19613 -5.42834,-5.44088 -7.4931,-7.21057 -8.1805,-7.01141 -12.73493,-20.26021 -12.75147,-37.09385 -0.003,-3.1227 -0.50443,-7.47458 -1.11415,-9.67084 -0.60972,-2.19626 -1.21167,-5.34626 -1.33767,-7 -0.25822,-3.38918 -2.39988,-12.23986 -3.50489,-14.48442 -0.4001,-0.81269 -1.80975,-1.48768 -3.13258,-1.5 -2.30364,-0.0214 -2.41486,-0.33887 -2.63575,-7.52238 -0.12685,-4.125 -0.23571,-8.61737 -0.24192,-9.98305 -0.008,-1.73453 2.0211,-4.5328 6.73063,-9.28253 7.64525,-7.71053 12.40543,-9.74962 22.67341,-9.71246 10.44113,0.0378 18.72453,5.43744 25.06096,16.33636 1.94099,3.33858 3.99008,5.37186 6.55051,6.5 2.04928,0.90292 9.72609,5.24168 17.05958,9.64168 13.45052,8.07015 19.77339,13.47922 27.39745,23.4379 13.33558,17.41918 33.62013,39.04541 41.41235,44.15148 12.11696,7.93999 25.20518,15.74287 31.73321,18.91856 17.57697,8.55068 21.56008,10.64067 24.11296,12.65242 1.50782,1.1882 2.40688,2.4978 1.99793,2.91022 -0.64759,0.65308 -2.18363,0.30727 -9.75645,-2.19646 -0.825,-0.27277 -0.15,0.69393 1.5,2.14822 3.01648,2.65868 12.84579,7.59795 17.5,8.79383 1.375,0.3533 4.03798,1.59099 5.91774,2.75041 4.36638,2.69316 2.80917,3.89676 -5.06924,3.91811 -4.38944,0.0119 -8.13226,-0.98169 -16.76044,-4.4493 -6.10992,-2.45553 -11.7803,-4.20698 -12.60085,-3.89211 -0.84926,0.32589 -2.2447,-0.34999 -3.23955,-1.56908 -2.05309,-2.51586 -21.64489,-9.90952 -28.24766,-10.66026 -2.475,-0.28141 -5.73156,-0.70223 -7.2368,-0.93516 -1.76539,-0.27318 -3.36262,0.21922 -4.5,1.38729 -1.60304,1.6463 -2.66097,1.72215 -11.64657,0.83498 -8.72465,-0.86141 -9.98983,-0.78556 -10.7915,0.64693 -0.49947,0.89251 -1.90195,1.6409 -3.11663,1.66309 -8.87242,0.16206 -15.75997,-0.28397 -18.97143,-1.22858 -3.2977,-0.96997 -4.03952,-0.85662 -6,0.91682 -4.32506,3.91243 -8.16266,4.32209 -16.48707,1.75995 -1.91704,-0.59004 -2.25,-0.32342 -2.25,1.80166 0,1.37181 -0.675,3.05439 -1.5,3.73908 -0.88855,0.73743 -1.50152,2.92742 -1.50374,5.37244 -0.002,2.34153 -0.85675,5.52659 -1.97507,7.36074 -2.27711,3.73467 -1.7401,6.26015 1.3358,6.28213 3.36167,0.024 4.26358,1.10916 5.59756,6.73469 0.91351,3.85237 1.70955,5.25 2.9902,5.25 0.9599,0 2.49002,0.82293 3.40026,1.82874 1.3761,1.52057 1.65499,4.21682 1.65499,16 l 0,14.17126 -5.75945,0 c -4.88428,0 -5.97579,-0.3419 -7.18311,-2.25 z m 5.03634,-6.05622 c -0.79171,-0.79171 -1.09378,-0.53223 -1.09378,0.93955 0,2.64375 1.39845,4.04704 1.84378,1.85016 0.18908,-0.93276 -0.14842,-2.18813 -0.75,-2.78971 z m -3.31945,-14.41265 c -0.87559,-0.97962 -1.74551,-2.87088 -1.93316,-4.2028 -0.18764,-1.33192 -0.97076,-2.62928 -1.74025,-2.88303 -1.11922,-0.36907 -1.26287,0.39043 -0.71816,3.79692 0.37451,2.34205 1.16053,5.15441 1.74671,6.24969 0.97291,1.8179 1.20393,1.85327 2.65131,0.40588 1.44738,-1.44738 1.44682,-1.74073 -0.006,-3.36666 z"
         id="path3844"
         inkscape:connector-curvature="0" />
      <path
         style="fill:#9d8870"
         d="m 252.38251,428.89789 c -0.11217,-0.4125 -0.26709,-1.0875 -0.34426,-1.5 -0.0772,-0.4125 -0.49997,-1.31653 -0.93955,-2.00895 -0.43958,-0.69242 -0.53787,-2.08244 -0.21842,-3.08894 0.31945,-1.00649 -0.1015,-3.46301 -0.93545,-5.45893 -1.92547,-4.60831 -1.91634,-4.69318 0.50517,-4.69318 1.1849,0 2.49206,-1.0329 3.15866,-2.49594 0.92552,-2.03129 0.82845,-2.83713 -0.52144,-4.32874 -0.91226,-1.00804 -1.65866,-2.52418 -1.65866,-3.3692 0,-0.84502 -0.7876,-2.60959 -1.75022,-3.92126 -0.96262,-1.31167 -3.10012,-4.97079 -4.75,-8.13136 -2.71404,-5.19913 -3.30935,-5.74684 -6.24978,-5.75 -1.7875,-0.002 -3.25,-0.48274 -3.25,-1.06847 0,-1.3038 -11.02139,-11.93503 -12.37305,-11.93503 -0.53321,0 -1.80522,-0.75634 -2.82669,-1.68076 -2.7603,-2.49804 -17.38391,-3.10311 -22.78333,-0.94269 -4.69529,1.87868 -6.01693,2.01562 -6.01693,0.62345 0,-0.55 0.87344,-1 1.94098,-1 1.06754,0 2.23806,-0.48068 2.60115,-1.06817 0.3631,-0.5875 1.28965,-0.82662 2.05902,-0.53139 0.76937,0.29524 1.39885,0.15716 1.39885,-0.30682 0,-0.46399 -1.2375,-1.11482 -2.75,-1.44629 -1.5125,-0.33146 -3.875,-1.50271 -5.25,-2.60276 l -2.5,-2.0001 3.12755,-0.0222 c 1.72016,-0.0123 3.68776,-0.69727 4.37245,-1.52227 1.71725,-2.06916 3.72796,-1.87683 4.98773,0.47708 1.69324,3.16385 4.86553,4.43941 7.51468,3.02163 1.8361,-0.98265 2.7037,-0.90977 4.69395,0.3943 1.34284,0.87986 4.43551,1.99601 6.87259,2.48033 2.43708,0.48431 5.13534,1.17716 5.99615,1.53965 2.04479,0.86109 7.19053,-3.86251 6.73244,-6.18014 -0.19334,-0.97815 0.53447,-2.17931 1.67112,-2.75797 3.36977,-1.71552 3.08414,-4.3453 -0.6417,-5.90817 -3.25659,-1.36603 -16.34917,-9.61841 -18.32696,-11.55166 -13.06153,-12.76737 -17.02485,-17.66115 -10.59563,-13.08314 1.5974,1.13745 3.27253,2.06809 3.72251,2.06809 0.44997,0 -0.182,-0.70052 -1.40437,-1.5567 -1.22238,-0.85619 -2.22251,-2.17587 -2.22251,-2.93262 0,-0.75675 -0.89895,-1.66122 -1.99768,-2.00994 -1.09872,-0.34872 -2.29736,-1.82811 -2.66366,-3.28754 -0.36629,-1.45942 -1.71733,-3.78733 -3.00232,-5.17313 -2.73593,-2.95057 -2.86382,-3.62368 -0.83634,-4.4017 1.92517,-0.73876 1.92381,-3.51258 -0.003,-5.64144 -1.90894,-2.10938 -2.28558,-12.91638 -0.65523,-18.80114 1.00407,-3.6242 0.95276,-4.54391 -0.32475,-5.82143 -0.83447,-0.83447 -1.51722,-2.36924 -1.51722,-3.41061 0,-1.04136 -0.9285,-2.3903 -2.06333,-2.99764 -1.83983,-0.98465 -1.98982,-1.69253 -1.38477,-6.53519 l 0.67855,-5.43092 -5.11523,0 c -4.46004,0 -5.11522,-0.25791 -5.11522,-2.01357 0,-1.10746 0.5409,-2.87969 1.20201,-3.93829 0.9453,-1.51367 0.92284,-2.44635 -0.10521,-4.36727 -1.56039,-2.91561 -0.67488,-6.5021 1.55911,-6.31467 1.01324,0.085 2.10625,-1.31799 2.99706,-3.84704 2.00156,-5.68253 6.89794,-10.30831 12.75126,-12.04656 13.93779,-4.13908 26.83961,1.47105 34.60794,15.04866 1.80943,3.16257 3.90846,5.49449 5.2511,5.83373 2.3605,0.59642 28.53406,16.49992 35.08208,21.31647 2.11494,1.5557 4.53768,4.17854 5.38387,5.82854 0.84618,1.65 3.16577,4.83632 5.15465,7.0807 1.98887,2.24439 6.09113,7.16799 9.11613,10.94134 3.025,3.77334 9.325,10.71202 14,15.41929 4.675,4.70727 9.26725,9.74944 10.20501,11.20482 0.93775,1.45538 3.31678,3.48038 5.28673,4.5 1.96996,1.01962 10.2027,5.92543 18.295,10.9018 8.09229,4.97638 17.18826,10.08535 20.21326,11.35327 7.251,3.03925 20.2533,10.17881 19.64502,10.78709 -0.26371,0.26372 -3.2275,-0.52249 -6.5862,-1.74713 -3.35869,-1.22464 -6.34165,-1.99168 -6.6288,-1.70453 -1.07413,1.07413 12.72565,9.88536 21.23792,13.56052 4.85763,2.09728 8.83206,4.23839 8.83206,4.75803 0,0.51964 -1.99747,1.08733 -4.43883,1.26152 -4.42681,0.31587 -5.9807,-0.1658 -19.14093,-5.93318 -3.61886,-1.58595 -7.40843,-2.88354 -8.42126,-2.88354 -1.01282,0 -2.58785,-0.67544 -3.50005,-1.50097 -0.91221,-0.82554 -7.13734,-3.51584 -13.83362,-5.97846 -13.14705,-4.83495 -12.86413,-4.80352 -38.26137,-4.25106 -7.12909,0.15507 -11.12847,0.67228 -12.22326,1.58074 -1.87083,1.55242 -10.28518,1.87126 -19.40231,0.73521 -5.47316,-0.68198 -6.53801,-0.52639 -8.85145,1.29336 -3.7465,2.947 -8.23709,3.52898 -12.72094,1.64862 -4.52203,-1.89637 -5.70598,-1.38139 -5.70598,2.48189 0,1.59021 -0.61394,3.25115 -1.36431,3.69098 -0.75815,0.44439 -1.58196,3.13675 -1.85418,6.05982 -0.26943,2.89307 -1.23049,6.07851 -2.13569,7.07874 -2.28513,2.52504 -2.01823,4.13058 1.33931,8.05686 2.42943,2.84096 2.80646,3.0233 2.30772,1.11612 -0.43289,-1.65536 -0.22089,-2.15453 0.77418,-1.82284 0.75367,0.25122 2.03572,3.01147 2.84901,6.13388 1.24413,4.77654 1.83461,5.67711 3.72231,5.67711 1.23399,0 2.60075,0.5625 3.03724,1.25 0.4365,0.6875 0.84386,6.65 0.90525,13.25 0.0614,6.6 0.43613,13.0125 0.83277,14.25 0.62063,1.93634 0.36327,2.25 -1.84622,2.25 -1.87913,0 -2.56739,-0.52296 -2.56739,-1.95078 0,-3.54895 -2.15002,-12.04922 -3.04768,-12.04922 -1.71573,0 -3.12813,4.24934 -2.50912,7.54894 0.40464,2.15689 1.35742,3.57039 2.6922,3.99404 1.54886,0.49158 1.78003,0.94159 0.92362,1.798 -0.8564,0.8564 -1.35187,0.80322 -1.97961,-0.21249 -0.70344,-1.13819 -0.92398,-1.13685 -1.37941,0.008 -0.29816,0.74973 -0.63388,1.02565 -0.74605,0.61315 z m -6.18312,-70.9375 c -0.61807,-1.85422 -2.77083,-2.16176 -2.77083,-0.39583 0,0.87083 0.7125,1.58333 1.58333,1.58333 0.87084,0 1.40521,-0.53438 1.1875,-1.1875 z m 18.57474,-15.28456 c 1.01507,-0.4484 3.22845,-2.07833 4.91864,-3.62207 l 3.07305,-2.80681 3.80322,3.0122 c 4.04454,3.20334 9.50125,5.27745 10.33502,3.92837 0.27637,-0.44716 -0.16757,-1.3691 -0.98651,-2.04877 -0.81894,-0.67966 -1.48899,-1.71853 -1.48899,-2.30859 0,-1.80217 -5.25868,-6.68227 -7.20066,-6.68227 -1.00456,0 -2.72492,0.56109 -3.82303,1.24686 -1.77491,1.10846 -2.41169,0.78315 -5.73643,-2.93056 -6.14152,-6.86005 -10.23988,-6.34096 -10.23988,1.29696 0,1.50961 -0.5554,4.28066 -1.23421,6.1579 -1.06356,2.94122 -1.00626,3.57983 0.41442,4.61866 1.82266,1.33276 5.32678,1.39204 8.16536,0.13812 z m -24.24789,-21.24652 c -0.92506,-1.58933 -1.04014,-1.60153 -1.06727,-0.11321 -0.0167,0.91752 0.29379,2.49252 0.69005,3.5 0.65796,1.6729 0.75053,1.68272 1.06727,0.11321 0.19075,-0.94522 -0.11977,-2.52022 -0.69005,-3.5 z m -29.56556,-60.73039 c 3.8228,-1.59727 4.23222,-3.25862 2.4153,-9.80103 -1.35018,-4.86178 -3.20703,-4.75476 -6.94115,0.40004 -3.3877,4.67659 -3.84848,8.26003 -1.25627,9.76986 2.21529,1.29029 1.73836,1.32072 5.78212,-0.36887 z m 33.51163,143.55459 c -0.82781,-1.99851 -0.90921,-3.5236 -0.25087,-4.7 0.79358,-1.41804 1.10748,-0.95488 1.69013,2.49383 0.87423,5.17453 0.21123,6.19081 -1.43926,2.20617 z"
         id="path3842"
         inkscape:connector-curvature="0" />
      <path
         style="fill:#8d6f56"
         d="m 254.42856,428.14789 c 0,-0.55 0.70156,-1 1.55902,-1 0.85746,0 1.2809,0.45 0.94098,1 -0.33992,0.55 -1.04148,1 -1.55902,1 -0.51754,0 -0.94098,-0.45 -0.94098,-1 z m 3.97614,-2.25 c -0.0274,-3.72666 -1.48639,-10.59358 -2.45709,-11.56428 -0.36071,-0.36071 -1.52175,0.46244 -2.58008,1.82922 -1.63049,2.10568 -2.0757,2.25606 -2.9163,0.98506 -1.49402,-2.259 -1.29838,-2.78184 2.21584,-5.9218 3.10636,-2.77554 3.16757,-2.972 1.5,-4.81465 -0.95618,-1.05657 -1.73851,-2.6103 -1.73851,-3.45274 0,-0.84245 -1.03117,-3.05701 -2.29149,-4.92126 -1.26033,-1.86425 -3.78861,-6.01246 -5.61842,-9.21824 -2.88518,-5.05477 -3.63782,-5.75065 -5.6685,-5.24099 -1.66253,0.41727 -2.62863,0.0513 -3.33144,-1.26188 -1.50126,-2.80512 -6.74831,-8.16844 -7.99136,-8.16844 -0.60433,0 -1.09879,-0.40284 -1.09879,-0.8952 0,-0.49235 -2.3625,-2.16168 -5.25,-3.70961 -4.32846,-2.32041 -6.51372,-2.82151 -12.44941,-2.85481 -4.37502,-0.0245 -7.69002,-0.53076 -8.45,-1.29038 -0.68782,-0.6875 -2.0667,-1.25 -3.06416,-1.25 -0.99746,0 -2.66119,-0.52935 -3.69718,-1.17633 -1.72927,-1.07995 -1.56434,-1.33429 2.01291,-3.10418 l 3.89651,-1.92784 3.55595,3.12216 c 3.19338,2.80383 3.75827,2.98044 5.54036,1.73222 1.7246,-1.20796 2.46288,-1.14602 5.63864,0.47308 2.00982,1.02466 5.25445,2.15072 7.2103,2.50235 1.95584,0.35162 4.00608,0.97442 4.55608,1.38399 0.55,0.40956 2.02131,0.65873 3.26957,0.5537 1.75074,-0.14731 3.17044,-1.95252 6.21032,-7.89668 3.9602,-7.74377 4.28319,-10.58395 1.18931,-10.4581 -2.51422,0.10226 -7.1692,-2.00603 -7.1692,-3.24701 0,-0.60941 -0.8216,-0.83137 -1.85882,-0.50217 -1.08192,0.34339 -2.39779,-0.0595 -3.14838,-0.96387 -1.06988,-1.28913 -0.99948,-1.76595 0.41324,-2.79896 2.44803,-1.79004 1.11938,-5.03744 -1.41377,-3.45546 -1.40187,0.87548 -2.19971,0.83583 -3.41107,-0.16951 -2.35466,-1.9542 -2.02058,-5.06739 0.5438,-5.06739 1.84667,0 2.04314,-0.40931 1.5,-3.125 -0.34375,-1.71875 -0.625,-3.79189 -0.625,-4.60699 0,-0.93682 -0.57844,-1.26002 -1.57244,-0.87858 -2.69714,1.03498 -5.42756,-1.19089 -5.42756,-4.42461 0,-1.63065 -0.92089,-3.97732 -2.04642,-5.21482 -1.12553,-1.2375 -2.70053,-2.96275 -3.5,-3.83389 -0.79947,-0.87114 -1.45358,-2.3566 -1.45358,-3.30102 0,-1.02523 -1.44567,-2.32118 -3.58777,-3.21621 -2.41676,-1.00979 -3.40591,-1.97297 -3.03059,-2.95104 0.30645,-0.79859 0.17645,-3.48992 -0.28888,-5.98074 -0.74618,-3.99406 -0.60948,-4.65538 1.15776,-5.60117 2.67861,-1.43355 3.90921,0.45702 3.50459,5.38407 -0.27224,3.315 -0.0466,3.75 1.94541,3.75 1.29059,0 2.94234,1.05149 3.86589,2.46101 2.52811,3.85839 5.15465,4.16332 7.72415,0.89673 3.07572,-3.91014 3.5244,-9.33186 0.83058,-10.03631 -1.1154,-0.29169 -2.73433,-1.60833 -3.59762,-2.92588 -0.91958,-1.40346 -2.54366,-2.39555 -3.92157,-2.39555 -1.84354,0 -2.48962,-0.68835 -2.98883,-3.18438 -0.35028,-1.75141 -1.35061,-3.97306 -2.22296,-4.93699 -1.85424,-2.04892 -1.08178,-3.87863 1.63747,-3.87863 1.28658,0 1.7218,0.48939 1.334,1.5 -0.31659,0.825 -0.0417,1.5 0.61084,1.5 0.75892,0 0.99129,-0.99092 0.64486,-2.75 -0.29787,-1.5125 -0.82188,-4.8019 -1.16448,-7.30979 l -0.62289,-4.55978 4.0824,-1.84091 c 3.44857,-1.55509 3.88873,-2.07419 2.83502,-3.34344 -0.68606,-0.8264 -1.34319,-2.44608 -1.4603,-3.59931 -0.47866,-4.71379 -1.58013,-8.65985 -2.59176,-9.28507 -0.59075,-0.36511 -3.01387,1.54058 -5.3847,4.23485 -4.59445,5.22124 -5.40096,8.62963 -2.84242,12.01232 0.80751,1.06762 1.4825,2.49207 1.5,3.16545 0.0406,1.56385 -4.46873,3.90375 -9.25276,4.80124 -3.21902,0.60389 -3.70605,0.44833 -3.64515,-1.16427 0.0386,-1.02371 0.42377,-2.76129 0.8558,-3.86129 0.43204,-1.1 0.33234,-3.30651 -0.22156,-4.90335 -0.90674,-2.61404 -1.13089,-2.73405 -2.2494,-1.2044 -0.68327,0.93443 -2.85722,1.96102 -4.831,2.28132 -4.50168,0.73052 -5.56909,-1.26529 -3.00144,-5.61198 1.40571,-2.37968 1.53354,-3.30536 0.58712,-4.25178 -1.80968,-1.80968 -1.45949,-3.80981 0.66705,-3.80981 1.31498,0 2.54285,-1.57169 4.10151,-5.25 3.13949,-7.40895 7.23037,-11.3607 13.25742,-12.80656 5.41334,-1.29865 13.73181,-0.71248 18.44815,1.29996 4.88686,2.08519 10.85711,7.92462 14.2198,13.90821 2.0716,3.68623 4.00393,5.85938 5.55653,6.24906 1.30922,0.32859 5.41241,2.63063 9.11821,5.11564 3.7058,2.48501 10.15414,6.3945 14.32966,8.68777 9.29533,5.10515 16.09186,10.60854 16.09186,13.03013 0,0.99588 3.40442,5.45104 7.56537,9.90035 4.16095,4.44932 9.34249,10.3379 11.51452,13.08573 2.17204,2.74783 7.25861,8.08672 11.30351,11.8642 4.04489,3.77749 7.90173,8.18966 8.57075,9.80483 0.6901,1.66603 2.2302,3.19112 3.55946,3.52474 1.28867,0.32344 6.0878,2.91053 10.66472,5.7491 13.98906,8.6759 30.18487,17.86391 32.82167,18.61999 3.7107,1.06401 15.41004,7.58017 14.28375,7.9556 -0.53446,0.17815 -3.10425,-0.59018 -5.71065,-1.70742 -5.63945,-2.41735 -5.5731,-2.41 -5.5731,-0.6171 0,2.23716 12.12785,9.79365 23.88619,14.88274 3.5124,1.52019 6.1301,3.02007 5.81711,3.33307 -0.313,0.31299 -2.28678,0.66717 -4.38619,0.78705 -3.94391,0.22521 -4.98669,-0.10295 -16.89687,-5.31744 -3.89386,-1.70481 -8.11925,-3.09965 -9.38975,-3.09965 -1.2705,0 -2.80961,-0.67223 -3.42025,-1.49385 -0.61063,-0.82161 -6.51024,-3.57386 -13.11024,-6.1161 -10.80294,-4.16117 -13.04742,-4.67224 -22.5,-5.12329 -5.81742,-0.27758 -12.15039,-0.0448 -14.20076,0.52191 -2.24012,0.61919 -5.18741,0.68763 -7.46744,0.17339 -2.68014,-0.60446 -4.64148,-0.44241 -6.79925,0.56179 -4.28143,1.99252 -12.95956,2.52105 -20.26615,1.23429 -5.50701,-0.96984 -6.46011,-0.89281 -8.17689,0.66085 -3.13296,2.83529 -8.98371,3.72505 -12.74817,1.9387 -4.48521,-2.12837 -7.69851,-1.00645 -7.03647,2.45678 0.32023,1.67521 -0.18462,3.48849 -1.40224,5.03645 -1.18621,1.50801 -1.90263,4.00485 -1.90263,6.63093 0,2.76735 -0.68143,4.99782 -1.98664,6.50275 -1.98561,2.28942 -1.9855,2.29267 0.21614,6.20995 1.21153,2.15563 2.79139,4.40783 3.51081,5.00489 1.89714,1.57448 2.7915,0.14786 1.15219,-1.8379 -1.19849,-1.45177 -1.18762,-1.61905 0.078,-1.20066 0.80878,0.26737 1.81983,2.16743 2.24678,4.22235 1.07857,5.19117 2.68135,7.86964 4.33046,7.23682 0.76691,-0.29429 2.0193,0.0899 2.7831,0.85365 1.08815,1.08816 1.28272,3.96249 0.89896,13.28039 -0.33039,8.02222 -0.11062,12.60009 0.6754,14.06879 1.05434,1.97005 0.92403,2.17712 -1.37002,2.17712 -2.18865,0 -2.53845,-0.44425 -2.55905,-3.25 z m -13.37197,-53.47917 c -1.01652,-1.01651 -1.85525,0.51389 -1.02122,1.86338 0.63003,1.01942 0.86558,1.02021 1.2043,0.004 0.2316,-0.69479 0.14921,-1.53513 -0.18308,-1.86742 z m 3.19122,-14.44688 c 0.38284,-1.98794 -3.51521,-3.50413 -5.05367,-1.96567 -0.74261,0.74261 -0.66567,1.52843 0.2587,2.64223 1.61718,1.94858 4.36405,1.56101 4.79497,-0.67656 z m 17.20461,-6.10923 c 0,-2.79752 2.66919,-4.02569 6.12833,-2.81983 4.82599,1.68235 8.21889,1.45233 7.46732,-0.50623 -0.47544,-1.23898 -0.2113,-1.44087 1.14301,-0.87367 4.24856,1.77933 11.42965,2.59021 12.80803,1.44626 0.88307,-0.73288 3.14636,-0.9302 6.17374,-0.53824 2.62876,0.34034 6.12957,0.23802 7.77957,-0.22738 l 3,-0.8462 -4.16594,-2.63419 c -4.25224,-2.68877 -6.92029,-5.5291 -4.2481,-4.52241 4.21663,1.58853 6.11756,1.94549 5.56052,1.04418 -0.33219,-0.5375 -3.32311,-1.99415 -6.64648,-3.23701 -3.32337,-1.24286 -6.26842,-2.6253 -6.54456,-3.07209 -0.27613,-0.4468 -2.62907,-1.09768 -5.22875,-1.44641 -2.59968,-0.34872 -6.30169,-1.21928 -8.22669,-1.93456 -1.925,-0.71528 -4.88864,-1.09072 -6.58587,-0.83431 -2.52751,0.38184 -3.94083,-0.27376 -7.81082,-3.62322 -6.38096,-5.52268 -10.95502,-5.38972 -11.0661,0.32168 -0.0571,2.93481 -2.53721,3.20776 -2.53721,0.27923 0,-2.93225 -2.35552,-4.1718 -4.04933,-2.13088 -2.60397,3.13759 -5.95067,1.1586 -5.95067,-3.51878 0,-0.98768 -0.64489,-2.33098 -1.43309,-2.98513 -1.14046,-0.94649 -1.8679,-0.75454 -3.5625,0.94006 -2.79383,2.79383 -4.3894,2.13223 -5.00441,-2.07508 -0.275,-1.88128 -0.8375,-3.30801 -1.25,-3.17051 -0.4125,0.1375 -1.2,0.25 -1.75,0.25 -2.20153,0 -0.79144,3.66111 2.75,7.14002 2.0625,2.02608 4.8604,4.84361 6.21756,6.26118 1.35716,1.41757 3.99218,3.30088 5.8556,4.18512 3.0257,1.43579 3.32327,1.93156 2.78243,4.63571 -0.33307,1.66538 -0.60559,4.35302 -0.60559,5.97252 0,2.44464 -0.36465,2.8903 -2.14787,2.625 -3.08646,-0.45919 -4.64975,-3.3127 -3.13962,-5.73082 0.96818,-1.55029 0.90027,-2.1652 -0.35407,-3.20621 -1.28876,-1.06958 -1.71362,-0.99924 -2.50491,0.41472 -0.5241,0.93652 -1.92055,1.70276 -3.10322,1.70276 -1.58925,0 -1.85759,0.29271 -1.02846,1.12186 0.61702,0.61702 0.89673,1.70852 0.62158,2.42556 -0.74631,1.94486 3.54768,4.30041 10.22718,5.61031 4.60374,0.90283 6.60011,1.89837 8.92939,4.45288 4.35151,4.77227 7.47982,5.68476 9.72105,2.8355 0.97842,-1.24386 1.77895,-2.92299 1.77895,-3.73139 z M 249.7067,336.02603 c -1.51712,-1.51712 -0.47827,-3.87814 1.7064,-3.87814 2.16468,0 4.42649,2.52592 3.54253,3.9562 -0.85118,1.37724 -3.83804,1.33283 -5.24893,-0.0781 z m 114.72186,17.12186 c 0,-0.55 -0.47656,-1 -1.05902,-1 -0.58246,0 -0.7809,0.45 -0.44098,1 0.33992,0.55 0.81648,1 1.05902,1 0.24254,0 0.44098,-0.45 0.44098,-1 z m -40.51008,-25.01631 c -0.34546,-0.55897 -1.04702,-0.75742 -1.55902,-0.44098 -1.38704,0.85723 -1.12841,1.45729 0.62812,1.45729 0.85746,0 1.27636,-0.45734 0.9309,-1.01631 z M 225.4149,307.89789 c -0.007,-0.6875 -0.27944,-2.24127 -0.60429,-3.45283 l -0.59064,-2.20283 -2.81504,2.08125 c -1.57944,1.16773 -2.58402,2.68328 -2.28872,3.45283 0.66186,1.72477 6.3174,1.83394 6.29869,0.12158 z m 17.73581,-15.41645 c 0.18247,-0.54741 -0.61212,-2.19524 -1.76575,-3.66185 -1.71393,-2.1789 -2.45036,-2.47771 -4.02695,-1.63394 -2.58415,1.38299 -2.72024,7.62693 -0.17945,8.23309 1.87462,0.44722 5.42624,-1.29958 5.97215,-2.9373 z m -12.53465,1.98334 c -0.72188,-0.28888 -1.58438,-0.25335 -1.91667,0.0789 -0.33229,0.33229 0.25834,0.56864 1.3125,0.52522 1.16495,-0.048 1.4019,-0.28495 0.60417,-0.60417 z m -11.1875,-13.81689 c 1.00381,-1.20952 0.97911,-1.49736 -0.12756,-1.48635 -2.55242,0.0254 -5.87244,1.21433 -5.87244,2.10298 0,1.4694 4.66679,0.98979 6,-0.61663 z m -27.5,88.5 c -0.33992,-0.55 -0.14148,-1 0.44098,-1 0.58246,0 1.05902,0.45 1.05902,1 0,0.55 -0.19844,1 -0.44098,1 -0.24254,0 -0.7191,-0.45 -1.05902,-1 z m 19.89227,-39.57322 c -0.93837,-3.73873 0.92941,-5.1051 3.48505,-2.54946 2.36222,2.36223 1.84208,5.12268 -0.96526,5.12268 -1.17912,0 -2.11342,-0.95412 -2.51979,-2.57322 z m -5.39227,-6.0001 c 0,-3.28234 3.34535,-2.99021 3.81955,0.33354 0.2427,1.70114 -0.17815,2.23978 -1.75,2.23978 -1.55658,0 -2.06955,-0.63784 -2.06955,-2.57332 z m -4.5,-3.42668 c -1.07686,-1.7424 0.51929,-3.22888 2.07802,-1.93525 0.76998,0.63902 1.15336,1.56088 0.85195,2.04856 -0.72948,1.18032 -2.16477,1.12481 -2.92997,-0.11331 z m -3,-7 c -0.33992,-0.55 0.0835,-1 0.94098,-1 0.85746,0 1.55902,0.45 1.55902,1 0,0.55 -0.42344,1 -0.94098,1 -0.51754,0 -1.2191,-0.45 -1.55902,-1 z"
         id="path3840"
         inkscape:connector-curvature="0" />
      <path
         style="fill:#635a55"
         d="m 254.42856,428.14789 c 0,-0.55 0.70156,-1 1.55902,-1 0.85746,0 1.2809,0.45 0.94098,1 -0.33992,0.55 -1.04148,1 -1.55902,1 -0.51754,0 -0.94098,-0.45 -0.94098,-1 z m 4.38103,-0.75 c 0.68461,-2.3227 -1.66235,-13.51044 -2.92231,-13.93043 -0.54412,-0.18137 -1.71623,0.86827 -2.60469,2.33254 l -1.61539,2.6623 -1.1674,-2.1813 c -1.0217,-1.90906 -0.78697,-2.50142 1.88068,-4.74611 3.31284,-2.78757 3.91169,-5.11837 1.54808,-6.02537 -0.825,-0.31659 -1.5,-1.61794 -1.5,-2.89189 0,-1.27396 -1.04841,-3.58832 -2.32981,-5.14301 -1.28139,-1.5547 -2.60412,-3.57998 -2.93941,-4.50062 -0.33528,-0.92064 -1.76751,-3.50814 -3.18273,-5.75 -1.88503,-2.98607 -3.23834,-4.07611 -5.06059,-4.07611 -1.36811,0 -2.48746,-0.45 -2.48746,-1 0,-0.55 -1.0001,-2.0001 -2.22245,-3.22245 -3.02225,-3.02225 -3.1901,-5.36846 -0.75472,-10.54951 1.64391,-3.49726 2.34525,-4.16745 3.42415,-3.27205 0.74624,0.61933 1.63452,2.23259 1.97396,3.58503 0.33944,1.35244 0.99994,2.45898 1.46777,2.45898 0.46784,0 0.19511,-3.18585 -0.60606,-7.07966 -0.80117,-3.89381 -1.21403,-7.32229 -0.91748,-7.61885 0.29656,-0.29656 2.44565,1.09266 4.77576,3.08714 2.79439,2.3919 4.85312,3.43065 6.04781,3.05147 2.19588,-0.69695 2.48459,1.7562 0.40937,3.47847 -0.77104,0.63991 -1.68423,2.28841 -2.02931,3.66335 -0.34509,1.37493 -1.06827,2.22743 -1.60707,1.89443 -0.53879,-0.33299 -1.87526,-0.32118 -2.96993,0.0263 -1.61579,0.51284 -1.79565,0.99539 -0.95586,2.56455 0.56893,1.06307 1.69359,1.93285 2.49924,1.93285 1.76883,0 1.87152,1.37591 0.2915,3.90592 -0.97824,1.5664 -0.63982,2.71018 2.03533,6.87904 1.76476,2.75014 4.02451,5.21361 5.02167,5.47437 1.05971,0.27712 2.07338,1.77598 2.43966,3.60739 0.49892,2.49456 1.12935,3.13328 3.09264,3.13328 1.35629,0 2.79562,0.53336 3.1985,1.18524 0.40289,0.65188 0.76694,7.40129 0.80902,14.9987 0.0704,12.71174 -0.0684,13.81356 -1.74089,13.81476 -1.26092,9e-4 -1.65945,-0.53453 -1.30158,-1.7487 z m 127.11897,-54.61732 c -1.65,-0.53801 -6.43164,-2.47545 -10.62586,-4.30544 -4.19422,-1.82998 -8.20879,-3.32724 -8.92126,-3.32724 -0.71247,0 -2.00583,-0.63806 -2.87414,-1.41792 -0.86831,-0.77985 -5.07568,-2.80395 -9.34972,-4.49799 -4.27404,-1.69404 -10.84601,-4.62864 -14.60439,-6.52133 -3.75838,-1.89269 -10.61144,-4.76814 -15.22902,-6.3899 -4.61759,-1.62176 -13.34561,-5.08324 -19.39561,-7.69218 -12.52718,-5.4021 -22.478,-8.45293 -30.60994,-9.38473 -4.3541,-0.49892 -6.43261,-1.36513 -9.2848,-3.86939 -2.21525,-1.94501 -4.75592,-3.22656 -6.39666,-3.22656 -4.23863,0 -9.30013,1.74593 -10.76229,3.71239 -1.89329,2.5463 -4.85484,0.50933 -5.26395,-3.62058 -0.38431,-3.87964 -2.56581,-4.95976 -5.20085,-2.57508 -2.52703,2.28693 -4.98151,0.49384 -4.98151,-3.63918 0,-3.2269 -1.46466,-3.672 -4.13401,-1.25627 -2.02498,1.83258 -4.86599,1.2097 -4.86599,-1.06684 0,-0.82959 1.13938,-2.25488 2.53196,-3.16734 2.30515,-1.51039 2.39405,-1.81138 0.99242,-3.36016 -1.00523,-1.11076 -1.33954,-2.71211 -0.96327,-4.61405 0.47191,-2.38537 0.15635,-3.09437 -1.74242,-3.91497 -2.41661,-1.0444 -2.78479,-3.07575 -1.35896,-7.49792 0.79538,-2.46685 0.77863,-2.4755 -1.26382,-0.65204 -2.34071,2.08975 -4.19591,1.47321 -4.19591,-1.39443 0,-1.80226 6.61218,-6.95353 8.92556,-6.95353 0.53092,0 1.55658,1.2375 2.27924,2.75 0.74136,1.55164 2.29033,2.88925 3.55457,3.06955 1.4367,0.2049 2.24063,1.01219 2.24063,2.25 0,1.47319 -0.70227,1.93045 -2.96482,1.93045 -1.98194,0 -3.33485,0.69142 -4.08102,2.08565 -1.50663,2.81516 -0.58468,3.44343 3.30241,2.25044 2.10925,-0.64734 4.26959,-0.6607 6.13784,-0.0379 2.58471,0.86157 3.23072,0.5924 6.24431,-2.60185 2.15238,-2.28141 3.27142,-4.39176 3.11131,-5.86752 -0.2088,-1.92463 0.31402,-2.38912 3.17048,-2.81672 1.88128,-0.28163 3.61861,-1.11154 3.86073,-1.84425 0.33858,-1.0246 -0.79757,-1.2555 -4.92051,-1 -4.24607,0.26312 -5.36073,0.0203 -5.36073,-1.1678 0,-0.825 0.97982,-1.63952 2.17738,-1.81003 1.19756,-0.17052 2.71516,-0.95802 3.37244,-1.75 2.15705,-2.59909 5.91196,-1.7605 7.3416,1.63961 0.71217,1.69377 2.37795,3.6116 3.70172,4.26184 1.32377,0.65024 3.03544,2.60423 3.80371,4.34219 1.42318,3.21949 3.47138,4.27838 8.32273,4.30273 2.51369,0.0126 7.47382,2.29361 12.25293,5.63468 2.2634,1.58235 10.52749,1.87984 10.52749,0.37898 0,-2.2845 1.98759,-0.69443 5,4 1.76467,2.75 3.59704,5 4.07194,5 1.61182,0 13.04781,11.72955 14.74247,15.12092 0.92708,1.85526 2.58559,3.5362 3.68559,3.73542 2.0212,0.36605 4.89068,1.9973 23,13.07509 5.5,3.36445 11.575,6.82933 13.5,7.69972 17.47906,7.90323 26.73349,13.32178 16.0946,9.42352 -5.24068,-1.92026 -7.74142,-1.91026 -6.54464,0.0262 1.13384,1.83458 12.96591,9.14733 21.15235,13.07308 4.56373,2.18851 8.29769,4.09918 8.29769,4.24593 0,0.69009 -8.83916,0.10043 -11.5,-0.76717 z m -20.64583,-20.0545 c -0.1948,-0.16326 -1.70417,-0.60318 -3.35417,-0.9776 l -3,-0.68077 3,2.02608 c 1.75733,1.18684 3.1467,1.59178 3.35417,0.9776 0.19479,-0.57667 0.19479,-1.18206 0,-1.34531 z m -41.39688,-23.50908 c 0.73955,-1.1966 -1.14162,-2.38223 -2.4736,-1.55902 -1.11836,0.69118 -0.38417,2.48992 1.01631,2.48992 0.48508,0 1.14086,-0.41891 1.45729,-0.9309 z M 227.035,372.421 c -0.8567,-0.85671 1.45725,-3.35178 2.50687,-2.70308 0.48768,0.3014 0.88669,0.9233 0.88669,1.382 0,1.07278 -2.62138,2.09326 -3.39356,1.32108 z m -7.45014,-3.99624 c -1.55866,-1.09416 -5.16581,-1.79336 -10.7691,-2.08746 -4.63398,-0.24322 -8.66837,-0.83534 -8.96532,-1.31581 -0.29695,-0.48048 -1.58326,-0.8736 -2.85845,-0.8736 -3.14143,0 -5.28214,-2.52914 -2.83451,-3.34882 0.9741,-0.32622 2.58677,-1.16868 3.58373,-1.87215 1.53472,-1.08292 2.07346,-0.97238 3.51366,0.72097 3.45567,4.06307 4.75646,4.64723 7.53215,3.38253 1.91311,-0.87166 2.93268,-0.88579 3.93432,-0.0545 0.7436,0.61713 3.79442,1.74712 6.77961,2.51109 3.25846,0.8339 5.42761,1.93744 5.42761,2.76126 0,1.99023 -2.63597,2.07729 -5.3437,0.1765 z m 100.0937,-17.30803 c -1.2375,-0.49742 -2.25,-1.42138 -2.25,-2.05325 0,-0.7281 0.82403,-0.89749 2.25,-0.4625 1.2375,0.3775 4.275,1.28974 6.75,2.02722 l 4.5,1.34086 -4.5,0.026 c -2.475,0.0143 -5.5125,-0.38095 -6.75,-0.87836 z m -77.05,-6.16884 c -0.66,-0.66 -1.2,-1.785 -1.2,-2.5 0,-1.83561 2.9395,-1.62124 3.66417,0.26722 0.82649,2.1538 -0.94133,3.75562 -2.46417,2.23278 z m -22.85492,-8.34313 c -0.32569,-0.84872 -0.3415,-1.79378 -0.0351,-2.10013 0.87571,-0.87571 2.69007,0.60965 2.69007,2.20228 0,1.91885 -1.90756,1.84546 -2.65493,-0.10215 z m 13.86742,0.35563 c -0.66688,-0.66688 -1.2125,-2.0538 -1.2125,-3.08205 0,-1.36681 0.60505,-1.78362 2.25,-1.55 1.62449,0.23071 2.25,0.99139 2.25,2.73622 0,2.78009 -1.52424,3.65909 -3.2875,1.89583 z m 17.7875,-2.8125 c 0,-0.55 0.19844,-1 0.44098,-1 0.24254,0 0.7191,0.45 1.05902,1 0.33992,0.55 0.14148,1 -0.44098,1 -0.58246,0 -1.05902,-0.45 -1.05902,-1 z m -27.47106,-3.61392 c -0.84092,-0.84091 -1.52894,-2.13965 -1.52894,-2.88608 0,-3.83456 5.46355,-5.29113 6.24485,-1.66486 0.95044,4.41134 -2.00422,7.26264 -4.71591,4.55094 z m -11.52894,-1.46941 c 0,-2.43705 2.33677,-2.09257 2.82332,0.4162 0.19138,0.98676 -0.31876,1.66713 -1.25,1.66713 -0.92763,0 -1.57332,-0.855 -1.57332,-2.08333 z m -5.77083,-5.10417 c 0.61807,-1.85422 2.77083,-2.16176 2.77083,-0.39583 0,0.87083 -0.7125,1.58333 -1.58333,1.58333 -0.87084,0 -1.40521,-0.53437 -1.1875,-1.1875 z m 9.8998,-0.73279 c -2.1181,-1.30906 -0.9574,-5.53307 1.62103,-5.89926 1.80742,-0.2567 2.25,0.1618 2.25,2.12755 0,2.91026 -2.04341,4.90124 -3.87103,3.77171 z m -4.17062,-9.6299 c -1.06278,-1.28057 -0.99712,-1.83962 0.37755,-3.21428 1.55213,-1.55213 1.77607,-1.55213 3.3282,0 1.37467,1.37466 1.44033,1.93371 0.37755,3.21428 -0.7076,0.8526 -1.62634,1.55019 -2.04165,1.55019 -0.41531,0 -1.33406,-0.69759 -2.04165,-1.55019 z m -3.95835,-5.94981 c 0,-0.825 0.675,-1.5 1.5,-1.5 0.825,0 1.5,0.675 1.5,1.5 0,0.825 -0.675,1.5 -1.5,1.5 -0.825,0 -1.5,-0.675 -1.5,-1.5 z m -2.3125,-3.14583 c -1.37384,-1.37385 -0.66124,-3.49576 1.0625,-3.1638 0.9625,0.18536 1.75,0.96836 1.75,1.73999 0,1.57885 -1.76429,2.47201 -2.8125,1.42381 z m 79.3125,-12.42059 c 0,-1.663 0.53521,-2.00465 2.74145,-1.75 1.65345,0.19084 2.87316,1.01094 3.07332,2.06642 0.25774,1.35905 -0.35471,1.75 -2.74145,1.75 -2.43958,0 -3.07332,-0.42611 -3.07332,-2.06642 z m -9.5,-6.93358 c -0.97994,-1.58558 0.41186,-3 2.95203,-3 2.24897,0 4.04361,2.17102 2.8124,3.40223 -0.97034,0.97035 -5.09396,0.68261 -5.76443,-0.40223 z m -41.1956,-2.95745 c -0.96188,-1.1234 -2.33245,-2.04255 -3.04569,-2.04255 -0.88263,0 -1.09716,-0.79549 -0.67169,-2.49068 0.81294,-3.23904 -2.23327,-4.71359 -4.19507,-2.03067 -0.97624,1.33509 -2.87964,1.86459 -7.32739,2.03836 -6.67884,0.26095 -6.41185,0.53985 -7.56158,-7.89909 l -0.66514,-4.88207 2.83108,0.69267 c 1.55709,0.38097 4.18108,0.92822 5.83108,1.21611 1.65,0.28789 4.54848,1.22254 6.44106,2.07698 1.89258,0.85445 4.55815,1.85231 5.92349,2.21745 3.73539,0.999 4.93442,3.52061 2.79706,5.88236 -1.68847,1.86574 -1.65875,1.96248 0.79204,2.57759 1.40049,0.3515 2.54635,1.27896 2.54635,2.06102 0,2.42688 -1.86473,2.72081 -3.6956,0.58252 z m -25.3044,-1.54255 c 0,-0.825 0.45,-1.5 1,-1.5 0.55,0 1,0.675 1,1.5 0,0.825 -0.45,1.5 -1,1.5 -0.55,0 -1,-0.675 -1,-1.5 z m 59.3229,-2.10093 c -0.33788,-0.8805 0.0137,-1.99861 0.78138,-2.48468 1.87933,-1.18999 2.20684,-1.14833 4.45459,0.56661 1.68015,1.28188 1.73946,1.61594 0.44113,2.48468 -2.25452,1.50856 -4.98537,1.23601 -5.6771,-0.56661 z m -62.3229,-0.84005 c 0,-0.24254 0.45,-0.7191 1,-1.05902 0.55,-0.33992 1,-0.14148 1,0.44098 0,0.58246 -0.45,1.05902 -1,1.05902 -0.55,0 -1,-0.19844 -1,-0.44098 z m 51.57003,-5.44571 c -0.75268,-1.21786 2.09501,-3.43836 3.38617,-2.64038 1.77108,1.09459 1.15233,3.52707 -0.89718,3.52707 -1.06754,0 -2.18759,-0.39901 -2.48899,-0.88669 z m -63.57003,-10.22129 c -1.42185,-4.96135 -4,-7.85817 -4,-4.49441 0,1.44531 -1.49462,2.10525 -6.39626,2.82424 -2.93565,0.43061 -3.02276,-1.89374 -0.1776,-4.7389 1.41562,-1.41562 2.57386,-2.97562 2.57386,-3.46667 0,-0.49104 1.23704,-0.80809 2.74898,-0.70454 2.1677,0.14845 2.81745,-0.29264 3.07273,-2.08598 0.17806,-1.25084 -0.0465,-2.21005 -0.49898,-2.13158 -2.09224,0.3628 -3.32273,-0.21766 -3.32273,-1.56743 0,-2.19718 4.24957,-10.52675 5.37052,-10.52675 0.5346,0 1.68243,-0.62857 2.55074,-1.39683 1.70442,-1.50803 12.80583,-4.60317 16.51028,-4.60317 8.3835,0 11.52759,5.17092 11.2406,18.48683 -0.1659,7.69732 -0.27403,8.03565 -2.98288,9.33368 -4.13078,1.97938 -5.23536,1.03058 -6.6699,-5.72926 -1.58695,-7.47806 -3.04459,-7.73527 -8.26936,-1.45919 -3.82498,4.59462 -4.75351,8.62435 -2.81978,12.23756 1.31102,2.44965 0.12038,3.84288 -3.93251,4.60163 l -3.49771,0.65481 -1.5,-5.23404 z m 36.33984,-16.74703 c -2.59001,-3.29045 -3.29498,-6.27818 -1.61975,-6.86461 1.40087,-0.49039 5.27059,5.35478 5.27617,7.96962 0.005,2.44386 -1.13399,2.09958 -3.65642,-1.10501 z"
         id="path3838"
         inkscape:connector-curvature="0" />
      <path
         style="fill:#644938"
         d="m 255.16189,428.0238 c 0.67834,-0.68342 1.48524,-0.99067 1.79313,-0.68278 0.30789,0.30789 -0.24711,0.86705 -1.23333,1.24258 -1.4252,0.54268 -1.54006,0.42782 -0.5598,-0.5598 z m 5.26667,0.12409 c 0,-0.55 0.45,-1 1,-1 0.55,0 1,0.45 1,1 0,0.55 -0.45,1 -1,1 -0.55,0 -1,-0.45 -1,-1 z m -1.25,-6.875 c -1.11006,-4.99527 -0.97607,-7.75107 0.31414,-6.46086 0.58527,0.58527 0.92277,3.03777 0.75,5.45 l -0.31414,4.38586 -0.75,-3.375 z m -1.06108,-18.07448 c -1.37844,-2.33351 -1.43296,-2.93476 -0.30534,-3.36747 1.71695,-0.65886 3.61642,1.15737 3.61642,3.45793 0,2.93874 -1.54666,2.89648 -3.31108,-0.0905 z m -4.68892,-0.97379 c 0,-1.05781 -1.0125,-3.19697 -2.25,-4.75371 -2.30678,-2.90187 -4.1025,-5.81404 -6.45471,-10.4678 -1.8876,-3.73452 -3.87355,-5.12385 -6.2473,-4.37045 -1.19084,0.37796 -2.04799,0.20327 -2.04799,-0.41738 0,-0.58707 -1.0001,-2.06749 -2.22245,-3.28984 -3.02225,-3.02225 -3.1901,-5.36846 -0.75472,-10.54951 1.64391,-3.49726 2.34525,-4.16745 3.42415,-3.27205 0.74624,0.61933 1.63452,2.23259 1.97396,3.58503 0.33944,1.35244 0.99994,2.45898 1.46777,2.45898 0.46784,0 0.19511,-3.18585 -0.60606,-7.07966 -0.80117,-3.89381 -1.21403,-7.32229 -0.91748,-7.61885 0.29656,-0.29656 2.44565,1.09266 4.77576,3.08714 2.79439,2.3919 4.85312,3.43065 6.04781,3.05147 2.13681,-0.6782 2.4008,0.82574 0.43178,2.45988 -0.75872,0.62968 -1.65344,2.5146 -1.98826,4.18872 -0.34171,1.70858 -1.05653,2.76712 -1.62946,2.41303 -0.56139,-0.34695 -1.91633,-0.34656 -3.011,8.7e-4 -1.61579,0.51284 -1.79565,0.99539 -0.95586,2.56455 0.56893,1.06307 1.69359,1.93285 2.49924,1.93285 1.86988,0 1.85619,0.91006 -0.0453,3.01118 -1.35888,1.50155 -1.19195,2.28556 1.66689,7.82874 1.74735,3.38804 3.75034,6.16008 4.4511,6.16008 0.70075,0 1.61157,0.54605 2.02404,1.21343 1.17309,1.89811 2.14806,9.78657 1.20955,9.78657 -0.4628,0 -0.84146,-0.86547 -0.84146,-1.92327 z M 227.035,372.421 c -0.8567,-0.85671 1.45725,-3.35178 2.50687,-2.70308 0.48768,0.3014 0.88669,0.9233 0.88669,1.382 0,1.07278 -2.62138,2.09326 -3.39356,1.32108 z m 152.87493,-2.62188 c -1.08975,-0.74865 -4.68137,-2.36079 -7.98137,-3.58253 -3.3,-1.22174 -6.675,-2.80157 -7.5,-3.51072 -0.825,-0.70915 -2.79145,-1.59692 -4.3699,-1.97282 -1.57844,-0.37589 -8.55344,-3.17296 -15.5,-6.21569 -6.94655,-3.04273 -15.5551,-6.57118 -19.1301,-7.841 -7.23498,-2.56984 -28.86014,-12.21425 -30.64505,-13.66712 -1.10467,-0.89917 -8.54859,-2.43706 -16.85495,-3.48217 -7.22222,-0.9087 -8.54419,-1.40401 -11.63781,-4.36044 -1.68247,-1.60787 -5.37725,-3.67516 -8.21062,-4.59399 -6.35587,-2.06113 -7.33623,-2.89486 -5.70919,-4.85532 1.82788,-2.20246 1.54372,-7.6121 -0.7488,-14.25529 -1.10354,-3.19778 -2.32346,-7.9438 -2.71094,-10.54671 -0.66479,-4.46584 -0.55734,-4.78853 1.90643,-5.72525 3.99672,-1.51955 3.11826,-2.8995 -2.0609,-3.23739 -4.48796,-0.29279 -7.65299,-2.80479 -3.53395,-2.80479 1.07849,0 2.52109,-0.675 3.20578,-1.5 2.20149,-2.65263 5.9486,-1.85185 7.39142,1.57958 0.71217,1.69377 2.37795,3.6116 3.70172,4.26184 1.32377,0.65024 3.03544,2.60423 3.80371,4.34219 1.42318,3.21949 3.47138,4.27838 8.32273,4.30273 2.48602,0.0125 6.35898,1.76147 12.09422,5.46161 1.20241,0.77574 4.21488,1.57349 6.69439,1.77278 6.93694,0.55755 7.67727,1.48889 3.87907,4.87992 -1.78611,1.59464 -4.29143,2.89935 -5.56737,2.89935 -1.39546,0 -2.31989,0.59772 -2.31989,1.5 0,2.14099 -2.75117,1.85935 -3.45351,-0.35353 -0.59941,-1.88858 -9.12314,-6.90315 -10.09017,-5.93612 -1.14509,1.14509 2.03348,5.88109 5.20166,7.75036 1.83811,1.08451 3.34202,2.60861 3.34202,3.38688 0,2.10061 6.722,6.87542 8.76596,6.22669 1.9581,-0.62148 4.46607,-5.58648 4.18755,-8.29004 -0.47495,-4.61015 2.00473,-6.09931 3.98741,-2.39462 0.82149,1.53495 0.62063,1.99177 -1.07017,2.43393 -3.01512,0.78847 -1.90945,2.76032 3.46331,6.17645 2.59506,1.65 7.68873,5.3625 11.31927,8.25 4.94327,3.93156 7.42708,5.25 9.89049,5.25 1.80923,0 3.46338,-0.52159 3.67588,-1.15909 0.42681,-1.28044 12.00269,4.79245 16.75086,8.78777 1.54998,1.30423 3.32463,2.37132 3.94367,2.37132 1.36761,0 9.08577,4.78186 9.08577,5.62918 0,0.33224 -0.9,0.36873 -2,0.0811 -3.79014,-0.99114 -1.98348,1.1209 4.41618,5.16265 5.40212,3.41175 6.3255,4.39891 5.84247,6.24601 -0.3322,1.27033 -0.17229,1.94575 0.37986,1.6045 2.54982,-1.57587 19.86149,6.72039 19.86149,9.51821 0,1.71155 -1.84915,1.90003 -4.01863,0.40961 z m -86.98137,-46.07294 c 2.2,-1.86557 3.69775,-3.69863 3.32833,-4.07346 -0.36942,-0.37482 -4.1817,0.41659 -8.47174,1.75871 l -7.80008,2.44022 2.97175,1.60808 c 4.23856,2.29359 5.47647,2.07839 9.97174,-1.73355 z m -71.47236,44.95501 c -1.0901,-1.31348 -0.88463,-1.5333 1.43325,-1.5333 1.64423,0 2.55048,0.46589 2.30994,1.1875 -0.6213,1.86392 -2.35068,2.02368 -3.74319,0.3458 z m -10.52764,-3.49452 c -2.36154,-0.57039 -2.64516,-0.88045 -1.33268,-1.45695 0.95116,-0.41779 2.88401,-0.0729 4.5,0.80287 2.98802,1.61942 1.82436,1.85972 -3.16732,0.65408 z m -13.75,-1.75503 c -3.33454,-0.50515 -3.39948,-0.93349 -0.5,-3.29812 2.19266,-1.78818 2.30734,-1.78145 4.5,0.26403 3.81226,3.55636 3.08569,4.10748 -4,3.03409 z m 124,-12.94603 c 0.6875,-0.27741 1.8125,-0.27741 2.5,0 0.6875,0.27741 0.125,0.50439 -1.25,0.50439 -1.375,0 -1.9375,-0.22698 -1.25,-0.50439 z m 39.25,-0.83772 c -1.375,-0.78602 -2.02351,-1.44508 -1.44113,-1.46456 0.58238,-0.0195 1.93238,0.62525 3,1.43276 2.46898,1.86744 1.68038,1.88353 -1.55887,0.0318 z M 242.5225,343.76108 c -0.81795,-0.98557 -0.86038,-1.6395 -0.13544,-2.08754 0.5806,-0.35883 1.33304,0.0705 1.6721,0.9541 0.84418,2.19989 -0.0836,2.88424 -1.53666,1.13344 z m -9.44328,-8.08116 c -0.64119,-1.67092 0.84863,-2.95952 2.34934,-2.03203 1.49514,0.92405 1.20589,3.5 -0.39301,3.5 -0.76616,0 -1.6465,-0.66059 -1.95633,-1.46797 z m -8.59844,-5.96911 c -1.50713,-1.81598 -0.71885,-4.56292 1.30941,-4.56292 2.06214,0 2.94616,3.12078 1.33921,4.72773 -1.16353,1.16353 -1.56704,1.13842 -2.64862,-0.16481 z m -11.55222,-0.56292 c -0.33992,-0.55 -0.14148,-1 0.44098,-1 0.58246,0 1.05902,0.45 1.05902,1 0,0.55 -0.19844,1 -0.44098,1 -0.24254,0 -0.7191,-0.45 -1.05902,-1 z m 31.73924,-4.21174 c -0.63555,-0.76578 -0.89709,-2.38062 -0.58122,-3.58853 0.33674,-1.28769 -0.15749,-3.31307 -1.19474,-4.89612 l -1.76906,-2.69992 -2.76274,3.30932 c -1.5195,1.82012 -3.18862,3.0461 -3.70914,2.72441 -0.8629,-0.53331 -0.49207,-19.55055 0.40073,-20.54986 0.20266,-0.22684 1.49538,0.10101 2.8727,0.72856 1.72177,0.78449 2.50423,1.93983 2.50423,3.69762 0,2.26014 0.23564,2.43052 2.03191,1.46918 1.84071,-0.98512 2.26468,-0.56114 4.50534,4.50538 1.88377,4.25955 2.32327,6.53174 1.84362,9.53135 -0.84514,5.28518 -2.56026,7.67406 -4.14163,5.76861 z m -28.82733,-3.15722 c -0.75055,-1.95592 0.27206,-3.63104 2.21666,-3.63104 0.98176,0 1.39867,0.7602 1.19098,2.17167 -0.38802,2.63702 -2.59331,3.58147 -3.40764,1.45937 z m 97.59334,-0.61023 c -2.63965,-0.64385 -4.12598,-4.02081 -1.7697,-4.02081 1.952,0 5.11543,2.48329 4.65205,3.65185 -0.21318,0.5376 -1.51024,0.70363 -2.88235,0.36896 z m -29.00483,-5.5203 c -0.92437,-1.1138 -1.00131,-1.89962 -0.2587,-2.64223 1.53846,-1.53846 5.43651,-0.0223 5.05367,1.96567 -0.43092,2.23757 -3.17779,2.62514 -4.79497,0.67656 z m -72.00042,-3.50051 c 0,-1.50615 0.52215,-2.04609 1.75,-1.80963 0.9625,0.18536 1.75,0.99969 1.75,1.80963 0,0.80993 -0.7875,1.62427 -1.75,1.80963 -1.22785,0.23646 -1.75,-0.30348 -1.75,-1.80963 z m -3.44721,-3.91459 c -0.32198,-0.52097 -0.15917,-1.21065 0.3618,-1.53262 0.52097,-0.32198 1.21065,-0.15917 1.53262,0.3618 0.32198,0.52097 0.15917,1.21065 -0.3618,1.53262 -0.52097,0.32198 -1.21065,0.15917 -1.53262,-0.3618 z m 17.44721,-3.39428 c 0,-0.71988 0.64471,-2.18238 1.43268,-3.25 1.86777,-2.53064 3.70102,-0.8342 2.49507,2.30887 -0.9226,2.40454 -3.92775,3.12461 -3.92775,0.94113 z m -20.30615,-1.33061 c -0.79893,-0.79893 0.10419,-2.36052 1.36517,-2.36052 0.51754,0 0.94098,0.675 0.94098,1.5 0,1.54641 -1.17996,1.9867 -2.30615,0.86052 z m 16.30615,-7.65474 c 0,-0.80349 0.71822,-2.05696 1.59604,-2.78549 1.39347,-1.15647 1.55212,-1.0233 1.25,1.04923 -0.37818,2.59428 -2.84604,4.09982 -2.84604,1.73626 z m 63,-3.70578 c 0,-2.25505 2.8671,-2.7329 4.8,-0.8 1.94521,1.94521 1.39571,2.8 -1.8,2.8 -2.33333,0 -3,-0.44444 -3,-2 z m -67,-2.44098 c 0,-0.85746 0.45,-1.55902 1,-1.55902 0.55,0 1,0.42344 1,0.94098 0,0.51754 -0.45,1.2191 -1,1.55902 -0.55,0.33992 -1,-0.0835 -1,-0.94098 z m 57.5,-4.55902 c -0.97994,-1.58558 0.41186,-3 2.95203,-3 2.24897,0 4.04361,2.17102 2.8124,3.40223 -0.97034,0.97035 -5.09396,0.68261 -5.76443,-0.40223 z m -7.1771,-6.60093 c -0.33789,-0.8805 0.0137,-1.99861 0.78138,-2.48468 1.87933,-1.18999 2.20684,-1.14833 4.45459,0.56661 1.68015,1.28188 1.73946,1.61594 0.44113,2.48468 -2.25452,1.50856 -4.98538,1.23601 -5.6771,-0.56661 z m -37.88581,-5.47543 -2.93709,-3.07635 3,0.7005 c 3.63727,0.84931 5.98002,2.86651 5.05931,4.35625 -1.04657,1.69339 -1.94719,1.34518 -5.12222,-1.9804 z m 27.13294,-0.81033 c -0.75268,-1.21786 2.09501,-3.43836 3.38617,-2.64038 1.77108,1.09459 1.15233,3.52707 -0.89718,3.52707 -1.06754,0 -2.18759,-0.39901 -2.48899,-0.88669 z m -35.12733,-2.53155 c -1.06676,-0.78003 -1.6413,-1.71649 -1.27677,-2.08102 0.84279,-0.84279 4.83407,1.24978 4.83407,2.53444 0,1.36333 -1.29921,1.19773 -3.5573,-0.45342 z m -26.9679,-4.50235 c 0.38245,-1.20499 -0.0657,-4.05993 -1.03637,-6.60145 -1.17227,-3.06954 -1.51907,-5.87298 -1.10249,-8.91223 0.55037,-4.0154 0.40209,-4.46383 -1.57065,-4.74987 -2.00393,-0.29057 -1.86153,-0.61692 1.77816,-4.07514 4.7253,-4.48971 8.3835,-5.62282 19.75149,-6.11793 8.45938,-0.36843 8.57888,-0.34043 9.61312,2.25207 1.67252,4.19249 0.61799,17.26731 -1.51869,18.82969 -4.33774,3.17183 -6.34389,0.26596 -6.37836,-9.23894 -0.0127,-3.49365 -3.95206,-6.46561 -8.57029,-6.46561 -2.60149,0 -2.66092,0.0992 -1.09571,1.82874 2.37754,2.62715 2.0394,5.87328 -0.80602,7.73767 -1.35355,0.88688 -2.78514,2.58475 -3.18132,3.77305 -0.93322,2.79912 -0.45908,7.80504 0.89534,9.45292 1.37934,1.67821 0.12341,2.81201 -4.10256,3.70359 -3.08894,0.65169 -3.29711,0.54148 -2.67565,-1.41656 z m -12.92411,-5.86206 c -1.0877,-1.0877 0.72972,-2.21735 3.56734,-2.21735 1.65,0 2.7551,0.39627 2.45576,0.8806 -0.63596,1.02901 -5.2965,2.06336 -6.0231,1.33675 z m 3.90819,-6.28388 c -0.36253,-0.58659 -0.41903,-1.30665 -0.12555,-1.60014 0.71632,-0.71631 2.66667,0.54583 2.66667,1.72569 0,1.27797 -1.72641,1.19267 -2.54112,-0.12555 z m 45.54112,-5.89452 c 0,-0.52857 -0.82795,-1.76607 -1.8399,-2.75 -2.30261,-2.23886 -3.35719,-5.04911 -2.17006,-5.7828 1.00395,-0.62047 6.00996,6.23138 6.00996,8.22598 0,0.69733 -0.45,1.26787 -1,1.26787 -0.55,0 -1,-0.43247 -1,-0.96105 z"
         id="path3836"
         inkscape:connector-curvature="0" />
      <path
         style="fill:#493930"
         d="m 260.42856,428.14789 c 0,-0.55 0.45,-1 1,-1 0.55,0 1,0.45 1,1 0,0.55 -0.45,1 -1,1 -0.55,0 -1,-0.45 -1,-1 z m -1.17807,-8.5 c -0.64456,-2.99648 -0.33292,-4.34433 0.75331,-3.25809 0.31639,0.31639 0.42152,1.85389 0.23363,3.41667 l -0.34162,2.84142 -0.64532,-3 z m -0.61526,-16.54068 c -1.58417,-2.53666 -0.62067,-4.5478 1.38236,-2.88543 1.47592,1.2249 1.96543,4.92611 0.65152,4.92611 -0.4177,0 -1.33295,-0.9183 -2.03388,-2.04068 z m -6.20667,-5.4907 c 0,-0.84227 -0.64021,-1.77706 -1.42268,-2.07732 -0.78248,-0.30027 -1.64539,-1.1263 -1.91759,-1.83564 -0.39031,-1.01713 0.0144,-1.05362 1.91488,-0.17268 1.49633,0.6936 2.41274,1.96991 2.41759,3.36702 0.004,1.2375 -0.2172,2.25 -0.4922,2.25 -0.275,0 -0.5,-0.68912 -0.5,-1.53138 z m -8.5,-12.46862 c -0.85325,-1.65 -2.2148,-3 -3.02568,-3 -0.81088,0 -1.47432,-0.70037 -1.47432,-1.55637 0,-0.856 -1.40215,-2.83704 -3.1159,-4.40231 -2.71985,-2.4842 -2.99789,-3.19994 -2.1875,-5.63112 1.28127,-3.8438 2.5733,-3.95663 4.16372,-0.36362 0.74254,1.6775 2.45998,4.36906 3.81654,5.98124 1.35656,1.61218 2.19491,3.37064 1.863,3.90769 -0.33192,0.53705 0.0629,2.57126 0.8773,4.52047 1.80521,4.32046 1.21634,4.66975 -0.91716,0.54402 z m -2.09802,-16.39484 c -0.29439,-0.76716 -0.39276,-3.099 -0.21861,-5.18187 l 0.31663,-3.78703 3.3468,3.06673 c 2.89816,2.65564 3.19506,3.35028 2.21482,5.18187 -1.27692,2.38594 -4.84616,2.8402 -5.65964,0.7203 z m 137.12371,0.43641 c -0.32579,-0.52714 -3.27735,-1.93744 -6.55902,-3.13399 -3.5554,-1.29637 -5.96667,-2.76312 -5.96667,-3.62947 0,-3.56312 15.42288,2.49053 16.78938,6.59002 0.45686,1.3706 -3.42618,1.52855 -4.26369,0.17344 z m -168.72569,-5.24157 c 0.93333,-0.93333 1.46667,-0.93333 2.4,0 0.93333,0.93333 0.66667,1.2 -1.2,1.2 -1.86667,0 -2.13333,-0.26667 -1.2,-1.2 z m -13.13716,-0.66831 -2.83716,-0.63169 2.47932,-2.323 2.47932,-2.32301 1.60784,2.29551 c 2.74204,3.91481 2.24493,4.31233 -3.72932,2.98219 z m 162.43867,-7.04779 c -2.478,-1.56899 -14.2842,-5.8261 -26.60151,-9.59206 -17.40742,-5.32223 -31.41945,-10.37035 -36,-12.96973 -5.11665,-2.90361 -13.68153,-5.36271 -21.53802,-6.18387 -4.39173,-0.45903 -6.99244,-1.33443 -9.01137,-3.03326 -1.5609,-1.3134 -5.00083,-3.11608 -7.6443,-4.00595 -5.76561,-1.94087 -6.26146,-2.564 -5.32927,-6.69722 0.42445,-1.88196 0.16947,-5.2308 -0.62043,-8.14844 -2.80327,-10.35448 -3.40537,-14.6897 -2.23587,-16.09885 1.14317,-1.37744 8.00381,-1.89664 9.20392,-0.69653 1.15202,1.15202 -1.47864,3.34201 -4.01449,3.34201 -2.06875,0 -2.34113,0.3462 -1.77023,2.25 1.17061,3.90373 3.09335,5.26695 5.68055,4.0275 3.86348,-1.85087 11.29287,-3.45991 14.36074,-3.11021 4.08156,0.46525 4.02828,3.92064 -0.0812,5.2685 -4.13118,1.35495 -4.12229,1.3358 -1.67723,3.61372 1.19748,1.11562 2.17723,2.41642 2.17723,2.89067 0,0.47425 1.575,1.79154 3.5,2.92732 1.925,1.13578 3.5,2.70182 3.5,3.48009 0,2.10061 6.722,6.87542 8.76596,6.22669 1.9581,-0.62148 4.46607,-5.58648 4.18755,-8.29004 -0.47495,-4.61015 2.00473,-6.09931 3.98741,-2.39462 0.82149,1.53495 0.62063,1.99177 -1.07017,2.43393 -3.01512,0.78847 -1.90945,2.76032 3.46331,6.17645 2.59506,1.65 7.68873,5.3625 11.31927,8.25 4.94327,3.93156 7.42708,5.25 9.89049,5.25 1.80923,0 3.47618,-0.55999 3.70432,-1.24441 0.28695,-0.86085 1.69306,-0.39851 4.56189,1.5 2.2809,1.50942 4.57227,2.74441 5.09193,2.74441 0.51967,0 3.00821,1.575 5.5301,3.5 2.52188,1.925 5.04029,3.5 5.59646,3.5 1.28525,0 8.97148,4.82274 8.97148,5.62918 0,0.33224 -0.9,0.36873 -2,0.0811 -3.76734,-0.98518 -1.99938,1.16758 4,4.87061 5.75786,3.55395 7.41258,5.43644 4.75,5.40383 -0.6875,-0.008 -1.87932,-0.41378 -2.64849,-0.90079 z m -67.10256,-32.03146 c 2.47442,-2.13834 4.20474,-4.18208 3.84516,-4.54166 -0.79455,-0.79456 -15.84411,3.66543 -15.84411,4.69546 0,0.84014 5.00696,3.70866 6.5,3.72388 0.55,0.006 3.02453,-1.73935 5.49895,-3.87768 z m 68.00105,25.44756 c -1.375,-0.78602 -2.02351,-1.44508 -1.44113,-1.46456 0.58238,-0.0195 1.93238,0.62525 3,1.43276 2.46898,1.86744 1.68038,1.88353 -1.55887,0.0318 z m -118,-6.5 c 0,-0.55 0.19844,-1 0.44098,-1 0.24254,0 0.7191,0.45 1.05902,1 0.33992,0.55 0.14148,1 -0.44098,1 -0.58246,0 -1.05902,-0.45 -1.05902,-1 z m -8.33333,-6.66667 c -1.28471,-1.2847 -0.67022,-3.27192 0.83333,-2.69496 0.825,0.31659 1.5,1.20246 1.5,1.96862 0,1.47024 -1.21212,1.84756 -2.33333,0.72634 z m -10.1109,-7.24309 c -0.84306,-1.36411 0.52565,-4.22903 1.81744,-3.80418 1.79047,0.58888 2.01393,4.71394 0.25536,4.71394 -0.8308,0 -1.76355,-0.40939 -2.0728,-0.90976 z m 20.80017,-4.32333 c -0.43024,-0.69614 -0.65538,-2.47523 -0.50031,-3.95353 0.61777,-5.88952 -3.86142,-9.08955 -6.03758,-4.31338 -1.50817,3.31006 -5.37033,3.53174 -4.35561,0.25 0.38263,-1.2375 0.94208,-5.72284 1.24323,-9.96743 0.50783,-7.15779 0.68338,-7.64472 2.42093,-6.71482 1.1845,0.63393 1.8734,2.09286 1.8734,3.96743 0,2.9353 2.15317,4.14404 3.5,1.96482 2.26932,-3.67184 5.4042,5.12544 4.72817,13.26846 -0.48829,5.88169 -1.47178,7.76443 -2.87223,5.49845 z m -28.18775,-4.40174 c 0.19756,-1.02584 0.80304,-1.75267 1.3455,-1.61517 1.45341,0.3684 1.19941,2.5123 -0.35919,3.03183 -0.8762,0.29207 -1.22022,-0.20206 -0.98631,-1.41666 z m 96.83706,0.65564 c -2.63965,-0.64385 -4.12598,-4.02081 -1.7697,-4.02081 1.952,0 5.11543,2.48329 4.65205,3.65185 -0.21318,0.5376 -1.51024,0.70363 -2.88235,0.36896 z m -29.00483,-5.5203 c -0.92437,-1.1138 -1.00131,-1.89962 -0.2587,-2.64223 1.53846,-1.53846 5.43651,-0.0223 5.05367,1.96567 -0.43092,2.23757 -3.17779,2.62514 -4.79497,0.67656 z m -71.00042,-2.94149 c 0,-0.85746 0.45,-1.55902 1,-1.55902 0.55,0 1,0.42344 1,0.94098 0,0.51754 -0.45,1.2191 -1,1.55902 -0.55,0.33992 -1,-0.0835 -1,-0.94098 z m 69.56867,-4.34265 c -0.31135,-0.981 -1.91668,-2.58144 -3.56739,-3.55654 -3.69697,-2.18386 -3.97428,-4.12085 -0.46381,-3.23978 1.3956,0.35027 4.32727,0.15492 6.51481,-0.43413 2.18754,-0.58904 5.47309,-0.79039 7.30121,-0.44743 l 3.32385,0.62356 -2.56135,2.91898 c -1.42238,1.62097 -3.57403,2.91897 -4.83867,2.91897 -1.35762,0 -2.27732,0.60578 -2.27732,1.5 0,2.10417 -2.7455,1.87723 -3.43133,-0.28363 z m -56.12798,-3.31233 c -0.755,-1.22163 2.15713,-4.63955 3.12681,-3.66988 0.82715,0.82716 -0.47521,4.76584 -1.57587,4.76584 -0.48048,0 -1.1784,-0.49318 -1.55094,-1.09596 z m -3.44069,-9.84502 c 0,-1.13246 0.45,-2.05902 1,-2.05902 0.55,0 1,0.64844 1,1.44098 0,0.79254 -0.45,1.7191 -1,2.05902 -0.55,0.33992 -1,-0.30852 -1,-1.44098 z m 64,-3.05902 c 0,-0.55 0.675,-1 1.5,-1 0.825,0 1.5,0.45 1.5,1 0,0.55 -0.675,1 -1.5,1 -0.825,0 -1.5,-0.45 -1.5,-1 z m -9,-8 c 0,-0.55 0.45,-1 1,-1 0.55,0 1,0.45 1,1 0,0.55 -0.45,1 -1,1 -0.55,0 -1,-0.45 -1,-1 z m -7.48992,-5.98369 c -0.34546,-0.55897 0.0734,-1.01631 0.9309,-1.01631 1.75653,0 2.01516,0.60005 0.62812,1.45729 -0.512,0.31644 -1.21356,0.11799 -1.55902,-0.44098 z m -74.94518,-17.14142 c -1.35549,-3.0723 -1.68611,-5.60159 -1.29541,-9.91029 0.48019,-5.29563 0.3429,-5.83304 -1.62245,-6.35068 -2.03504,-0.536 -1.95562,-0.75731 1.52251,-4.24259 4.08366,-4.09206 11.94813,-6.36992 19.37763,-5.61253 3.58392,0.36536 4.28884,0.88924 6.15851,4.57689 2.51478,4.96005 3.68117,13.87745 2.03101,15.52761 -0.62519,0.62519 -2.11545,1.1367 -3.3117,1.1367 -2.31851,0 -3.425,-3.03982 -3.425,-9.40939 0,-2.42683 -0.67342,-3.55719 -2.90429,-4.875 -1.59736,-0.94359 -4.09788,-1.71561 -5.55671,-1.71561 -2.54121,0 -2.58715,0.0932 -1.0957,2.22251 2.22657,3.17887 1.95795,4.52374 -1.54203,7.72048 -3.27336,2.98976 -3.77528,5.20777 -2.55866,11.30701 0.69471,3.48274 0.58033,3.75 -1.60485,3.75 -1.7961,0 -2.78353,-0.97613 -4.17286,-4.12511 z m -13.0649,-2.87489 c 0.33992,-0.55 1.74303,-1 3.11803,-1 1.41203,0 2.23104,0.43519 1.88197,1 -0.33992,0.55 -1.74303,1 -3.11803,1 -1.41203,0 -2.23104,-0.43519 -1.88197,-1 z"
         id="path3834"
         inkscape:connector-curvature="0" />
      <path
         style="fill:#322d2d"
         d="m 259.01151,402.2821 c -0.43077,-0.697 -0.51316,-1.53733 -0.18309,-1.86741 0.89496,-0.89496 1.87077,0.4213 1.38739,1.87145 -0.33872,1.01617 -0.57427,1.01538 -1.2043,-0.004 z m -20.39386,-24.73572 c -2.59688,-2.71699 -3.2426,-4.15788 -2.99415,-6.68127 l 0.31677,-3.21722 2.17106,4.0669 c 1.19408,2.23679 2.87894,4.65439 3.74414,5.37244 1.60564,1.33257 2.1796,4.11624 0.82309,3.99193 -0.4125,-0.0378 -2.23991,-1.62755 -4.06091,-3.53278 z m 4.43657,-8.47095 c -1.96581,-6.26635 -0.95371,-8.60335 1.86371,-4.30342 1.54848,2.36328 1.56214,2.75294 0.14613,4.16895 -1.32041,1.32041 -1.63128,1.34121 -2.00984,0.13447 z m 130.37434,-3.92754 c -4.39543,-1.84438 -4.42705,-1.88955 -1.36078,-1.94413 1.72656,-0.0307 4.20156,0.82916 5.5,1.91086 2.94889,2.45667 1.66079,2.46703 -4.13922,0.0333 z m -174.87812,-2.90351 c -0.75796,-0.48009 -1.0689,-1.37319 -0.69098,-1.98469 1.05461,-1.7064 2.27989,-1.32572 2.85885,0.8882 0.56647,2.1662 -0.0148,2.46021 -2.16787,1.09649 z m 156.26777,-9.06203 c -3.3607,-1.54955 -15.7357,-5.8314 -27.5,-9.51521 -23.53737,-7.37038 -38.40593,-13.77906 -37.14943,-16.01223 0.41788,-0.7427 2.843,-2.93977 5.38915,-4.88239 l 4.62937,-3.53203 3.37063,1.72473 c 1.85385,0.9486 5.75229,3.61097 8.66321,5.91637 5.88392,4.65998 11.28394,6.27761 13.84917,4.14866 1.40702,-1.16772 2.03837,-0.86017 4.80556,2.34101 2.23447,2.58489 3.76458,3.53398 5.12423,3.17842 2.39151,-0.62539 6.42846,2.91464 6.42846,5.63717 0,2.15925 3.54785,2.81749 4.22568,0.78399 0.22992,-0.68976 0.92962,-0.84501 1.6901,-0.375 1.06009,0.65517 1.06106,0.94833 0.005,1.60083 -1.95754,1.20983 0.29158,3.41302 7.73164,7.57374 5.89998,3.29946 7.44291,4.48571 5.5973,4.30339 -0.4125,-0.0407 -3.49966,-1.34191 -6.86035,-2.89145 z M 224.95978,328.85476 c -0.42806,-0.98622 -0.49771,-2.07372 -0.15476,-2.41666 1.01549,-1.0155 1.83409,0.41094 1.3667,2.38152 -0.41435,1.74695 -0.46826,1.74851 -1.21194,0.0351 z m 44.21878,-3.86915 c -1.5125,-0.55241 -2.75,-1.43288 -2.75,-1.95659 0,-0.52371 -1.99335,-1.80665 -4.42966,-2.85098 -4.96304,-2.12741 -7.03566,-5.04003 -6.13632,-8.62329 0.76242,-3.03771 1.6817,-3.02181 5.38361,0.0931 1.6341,1.375 4.05899,2.5 5.38867,2.5 1.52665,0 3.23496,1.10557 4.63558,3 1.99251,2.69501 2.03863,3 0.45366,3 -1.08192,0 -0.43724,0.71173 1.66677,1.84012 1.88711,1.01207 3.60509,2.36207 3.81773,3 0.47239,1.41717 -4.14705,1.41579 -8.03004,-0.002 z m -24.20729,-0.76862 c -0.31644,-0.512 -0.11799,-1.21356 0.44098,-1.55902 0.55897,-0.34546 1.01631,0.0734 1.01631,0.9309 0,1.75653 -0.60006,2.01516 -1.45729,0.62812 z m 35.02872,-3.64053 c -2.23031,-2.23031 -1.94857,-3.42857 0.80613,-3.42857 2.66361,0 5.1371,2.35825 4.14951,3.95619 -0.9365,1.51529 -3.14821,1.27982 -4.95564,-0.52762 z m 32.42857,-1.42857 c 0,-0.55 0.42344,-1 0.94098,-1 0.51754,0 1.2191,0.45 1.55902,1 0.33992,0.55 -0.0835,1 -0.94098,1 -0.85746,0 -1.55902,-0.45 -1.55902,-1 z m -78,-1.94098 c 0,-1.96193 1.69082,-3.70153 2.65784,-2.73452 0.78525,0.78526 -0.65022,4.6755 -1.72523,4.6755 -0.51293,0 -0.93261,-0.87344 -0.93261,-1.94098 z m 51.45888,-2.12555 c -0.36253,-0.58659 -0.41903,-1.30665 -0.12555,-1.60014 0.71632,-0.71631 2.66667,0.54583 2.66667,1.72569 0,1.27797 -1.72641,1.19267 -2.54112,-0.12555 z m -1.3784,-10.02734 c -3.16706,-1.2659 -1.74231,-2.61814 3.66952,-3.48275 3.82193,-0.61061 4.25,-0.47545 4.25,1.34182 0,3.08321 -3.31801,3.98018 -7.91952,2.14093 z m -57.08048,-0.7881 c 0,-0.55 0.45,-1.27811 1,-1.61803 0.55,-0.33992 1,-0.16803 1,0.38197 0,0.55 -0.45,1.27811 -1,1.61803 -0.55,0.33992 -1,0.16803 -1,-0.38197 z m 28.83514,0.20904 c -2.03545,-0.53908 -3.12977,-3.02694 -1.71582,-3.90082 1.31408,-0.81214 11.88068,0.47366 11.88068,1.44571 0,2.57112 -5.08733,3.79986 -10.16486,2.45511 z m 11.16486,-5.34238 c -1.33333,-0.87528 -1.33333,-1.0941 0,-1.96938 1.92239,-1.26196 7.70191,-1.30665 8.46899,-0.0655 1.37678,2.22768 -5.61587,3.90782 -8.46899,2.03487 z m -13.5,-8.98469 c -0.33992,-0.55 0.33508,-1 1.5,-1 1.16492,0 1.83992,0.45 1.5,1 -0.33992,0.55 -1.01492,1 -1.5,1 -0.48508,0 -1.16008,-0.45 -1.5,-1 z m -55.88965,-29.26644 c -2.64843,-3.47226 -3.51641,-11.73356 -1.2328,-11.73356 0.62798,0 1.13743,-1.4625 1.13212,-3.25 -0.008,-2.82211 0.36035,-3.29243 2.8008,-3.57226 5.95035,-0.68228 7.60569,4.32164 2.6071,7.88095 -2.92967,2.08612 -3.06595,2.48604 -2.75,8.06992 0.18284,3.23127 0.24283,5.87421 0.13332,5.87321 -0.10951,-0.001 -1.32025,-1.47172 -2.69054,-3.26826 z m 18.68183,-8.56178 c -0.65713,-2.10552 -0.95125,-4.75951 -0.65358,-5.89777 0.29765,-1.13825 0.0349,-3.01555 -0.58389,-4.17178 -0.95789,-1.78984 -0.84568,-2.10223 0.75512,-2.10223 2.92805,0 4.87125,3.02507 5.58853,8.69994 0.57243,4.52892 0.40405,5.33544 -1.30482,6.25 -2.63584,1.41066 -2.45214,1.54491 -3.80136,-2.77816 z"
         id="path3832"
         inkscape:connector-curvature="0" />
    </g>
  </g>
</svg>
